<?xml version="1.0" encoding="UTF-8"?>
<svg width="24px" height="19px" viewBox="0 0 24 19" version="1.1" xmlns="http://www.w3.org/2000/svg" xmlns:xlink="http://www.w3.org/1999/xlink">
    <!-- Generator: Sketch 50.2 (55047) - http://www.bohemiancoding.com/sketch -->
    <title>My_icon/grey_brev</title>
    <desc>Created with Sketch.</desc>
    <defs>
        <path d="M21.1851852,0.148148148 L2.81481481,0.148148148 C1.55185185,0.148148148 0.53,1.18148148 0.53,2.44444444 L0.518518519,16.2222222 C0.518518519,17.4851852 1.55185185,18.5185185 2.81481481,18.5185185 L21.1851852,18.5185185 C22.4481481,18.5185185 23.4814815,17.4851852 23.4814815,16.2222222 L23.4814815,2.44444444 C23.4814815,1.18148148 22.4481481,0.148148148 21.1851852,0.148148148 Z M20.7259259,5.02777778 L12.6085185,10.1025926 C12.2411111,10.3322222 11.7588889,10.3322222 11.3914815,10.1025926 L3.27407407,5.02777778 C2.98703704,4.84407407 2.81481481,4.53407407 2.81481481,4.20111111 C2.81481481,3.43185185 3.65296296,2.97259259 4.30740741,3.37444444 L12,8.18518519 L19.6925926,3.37444444 C20.347037,2.97259259 21.1851852,3.43185185 21.1851852,4.20111111 C21.1851852,4.53407407 21.012963,4.84407407 20.7259259,5.02777778 Z" id="path-1"></path>
    </defs>
    <g id="My_icon/grey_brev" stroke="none" stroke-width="1" fill="none" fill-rule="evenodd">
        <g id="icon/content/mail_24px">
            <mask id="mask-2" fill="white">
                <use xlink:href="#path-1"></use>
            </mask>
            <g id="icon/communication/email_24px" fill-rule="nonzero"></g>
            <g id="↳-Color" mask="url(#mask-2)" fill="#A6A6A6">
                <g transform="translate(-1.777778, -4.444444)" id="Rectangle">
                    <rect x="0" y="0" width="27.5555556" height="27.5555556"></rect>
                </g>
            </g>
        </g>
    </g>
</svg>