<?xml version="1.0" encoding="UTF-8"?>
<svg width="24px" height="24px" viewBox="0 0 24 24" version="1.1" xmlns="http://www.w3.org/2000/svg" xmlns:xlink="http://www.w3.org/1999/xlink">
    <!-- Generator: Sketch 50.2 (55047) - http://www.bohemiancoding.com/sketch -->
    <title>My_icon/grey_info</title>
    <desc>Created with Sketch.</desc>
    <defs>
        <path d="M12,0.461538462 C5.63076923,0.461538462 0.461538462,5.63076923 0.461538462,12 C0.461538462,18.3692308 5.63076923,23.5384615 12,23.5384615 C18.3692308,23.5384615 23.5384615,18.3692308 23.5384615,12 C23.5384615,5.63076923 18.3692308,0.461538462 12,0.461538462 Z M12,17.7692308 C11.3653846,17.7692308 10.8461538,17.25 10.8461538,16.6153846 L10.8461538,12 C10.8461538,11.3653846 11.3653846,10.8461538 12,10.8461538 C12.6346154,10.8461538 13.1538462,11.3653846 13.1538462,12 L13.1538462,16.6153846 C13.1538462,17.25 12.6346154,17.7692308 12,17.7692308 Z M13.1538462,8.53846154 L10.8461538,8.53846154 L10.8461538,6.23076923 L13.1538462,6.23076923 L13.1538462,8.53846154 Z" id="path-1"></path>
    </defs>
    <g id="My_icon/grey_info" stroke="none" stroke-width="1" fill="none" fill-rule="evenodd">
        <g id="icon/action/info_24px" transform="translate(12.000000, 12.000000) scale(1, -1) translate(-12.000000, -12.000000) ">
            <mask id="mask-2" fill="white">
                <use xlink:href="#path-1"></use>
            </mask>
            <g fill-rule="nonzero"></g>
            <g id="↳-Color" mask="url(#mask-2)" fill="#A6A6A6">
                <g transform="translate(-1.846154, -1.846154)" id="Rectangle">
                    <rect x="0" y="0" width="27.6923077" height="27.6923077"></rect>
                </g>
            </g>
        </g>
    </g>
</svg>