<?xml version="1.0" encoding="UTF-8"?>
<svg width="20px" height="20px" viewBox="0 0 20 20" version="1.1" xmlns="http://www.w3.org/2000/svg" xmlns:xlink="http://www.w3.org/1999/xlink">
    <!-- Generator: Sketch 50.2 (55047) - http://www.bohemiancoding.com/sketch -->
    <title>Group 4</title>
    <desc>Created with Sketch.</desc>
    <defs></defs>
    <g id="Page-1" stroke="none" stroke-width="1" fill="none" fill-rule="evenodd">
        <g id="Kontaktuppgifter" transform="translate(-173.000000, -549.000000)" fill="#00A388">
            <g id="Group-4" transform="translate(173.158898, 549.000000)">
                <path d="M4.57317732,2.15623719 C4.57317732,3.34742318 3.69260674,4.31225022 2.24361484,4.31225022 C0.880570578,4.31225022 0,3.34742318 0,2.15623719 C0,0.936364119 0.909070186,4.02232608e-08 2.30061406,4.02232608e-08 C3.69260674,-0.000224077555 4.54512653,0.936140001 4.57317732,2.15623719 L4.57317732,2.15623719 Z M0.113549621,19.8877635 L0.113549621,6.01464886 L4.43157691,6.01464886 L4.43157691,19.8877635 L0.113549621,19.8877635 L0.113549621,19.8877635 Z" id="Shape"></path>
                <path d="M6.54167224,10.4523597 C6.54167224,8.7219463 6.48512183,7.27526604 6.42857143,6.0267059 L10.1777286,6.0267059 L10.3772258,7.95591174 L10.4622758,7.95591174 C11.0302484,7.04756238 12.422241,5.71428571 14.7518035,5.71428571 C17.5923393,5.71428571 19.7228533,7.61525271 19.7228533,11.7004716 L19.7228533,19.8998205 L15.404826,19.8998205 L15.404826,12.211236 C15.404826,10.4236726 14.7798543,9.20424776 13.2173128,9.20424776 C12.0243686,9.20424776 11.3145712,10.02676 11.0021976,10.8212575 C10.8881991,11.1047665 10.8596995,11.5021273 10.8596995,11.8994882 L10.8596995,19.8998205 L6.54167224,19.8998205 L6.54167224,10.4523597 L6.54167224,10.4523597 Z" id="Shape"></path>
            </g>
        </g>
    </g>
</svg>