<?xml version="1.0" encoding="UTF-8"?>
<svg width="16px" height="20px" viewBox="0 0 16 20" version="1.1" xmlns="http://www.w3.org/2000/svg" xmlns:xlink="http://www.w3.org/1999/xlink">
    <!-- Generator: Sketch 50.2 (55047) - http://www.bohemiancoding.com/sketch -->
    <title>Pinterest</title>
    <desc>Created with Sketch.</desc>
    <defs></defs>
    <g id="Page-1" stroke="none" stroke-width="1" fill="none" fill-rule="evenodd">
        <g id="Kontaktuppgifter" transform="translate(-220.000000, -549.000000)" fill="#00A388">
            <path d="M226.404201,562.227836 C225.878128,564.981421 225.235905,567.621207 223.333469,569 C222.746317,564.838222 224.195973,561.712839 224.869035,558.394657 C223.721566,556.465467 225.007012,552.582288 227.427712,553.539282 C230.406126,554.716276 224.848209,560.712244 228.579187,561.46144 C232.474776,562.243036 234.065212,554.711076 231.649519,552.261489 C228.159449,548.724708 221.490108,552.18109 222.310158,557.244663 C222.509614,558.482856 223.790254,558.858254 222.821813,560.566845 C220.588153,560.072248 219.921299,558.312857 220.007209,555.96687 C220.145185,552.12749 223.461633,549.439104 226.787692,549.067306 C230.99428,548.596909 234.942336,550.609498 235.487434,554.561477 C236.10142,559.022053 233.589003,563.853227 229.090642,563.505629 C227.871681,563.41103 227.359825,562.808033 226.404201,562.227836 L226.404201,562.227836 Z" id="Pinterest"></path>
        </g>
    </g>
</svg>