<?xml version="1.0" encoding="UTF-8"?>
<svg width="26px" height="20px" viewBox="0 0 26 20" version="1.1" xmlns="http://www.w3.org/2000/svg" xmlns:xlink="http://www.w3.org/1999/xlink">
    <!-- Generator: Sketch 50.2 (55047) - http://www.bohemiancoding.com/sketch -->
    <title>Twitter</title>
    <desc>Created with Sketch.</desc>
    <defs></defs>
    <g id="Page-1" stroke="none" stroke-width="1" fill="none" fill-rule="evenodd">
        <g id="Kontaktuppgifter" transform="translate(-62.000000, -549.000000)" fill="#00A388">
            <path d="M87.4829085,551.367119 C86.575715,551.768906 85.601828,552.040152 84.5789252,552.1624 C85.6229878,551.537517 86.4246501,550.54803 86.8023125,549.369152 C85.8252113,549.94749 84.7431146,550.367734 83.5919137,550.594308 C82.6697209,549.612845 81.3554019,549 79.9018032,549 C77.1097794,549 74.8462152,551.260386 74.8462152,554.048819 C74.8462152,554.444453 74.8906776,554.829923 74.976924,555.199342 C70.775496,554.989086 67.0492263,552.978814 64.556654,549.923949 C64.1214047,550.669743 63.8717725,551.536982 63.8717725,552.462269 C63.8717725,554.213867 64.7642345,555.758955 66.1206052,556.664714 C65.2924262,556.638499 64.5124595,556.411925 63.8307921,556.033678 C63.8302564,556.054544 63.8302564,556.075409 63.8302564,556.096809 C63.8302564,558.543375 65.5733964,560.583875 67.8857085,561.047722 C67.4619766,561.163283 67.0152099,561.225076 66.5537117,561.225076 C66.2282792,561.225076 65.9119534,561.19351 65.6025916,561.134393 C66.245957,563.140117 68.1136452,564.600139 70.3255152,564.640532 C68.594964,565.994891 66.4155033,566.80221 64.0469436,566.80221 C63.6390146,566.80221 63.2367103,566.778134 62.8411022,566.730787 C65.0781497,568.163791 67.7349114,569 70.5909503,569 C79.8897502,569 84.975069,561.305861 84.975069,554.633577 C84.975069,554.415296 84.9702478,554.197282 84.9603375,553.980339 C85.9478847,553.26932 86.8047231,552.380146 87.4829085,551.367119 L87.4829085,551.367119 Z" id="Twitter"></path>
        </g>
    </g>
</svg>