<?xml version="1.0" encoding="UTF-8"?>
<svg width="29px" height="20px" viewBox="0 0 29 20" version="1.1" xmlns="http://www.w3.org/2000/svg" xmlns:xlink="http://www.w3.org/1999/xlink">
    <!-- Generator: Sketch 50.2 (55047) - http://www.bohemiancoding.com/sketch -->
    <title>youtube</title>
    <desc>Created with Sketch.</desc>
    <defs></defs>
    <g id="Page-1" stroke="none" stroke-width="1" fill="none" fill-rule="evenodd">
        <g id="Kontaktuppgifter" transform="translate(-115.000000, -549.000000)" fill="#00A388" fill-rule="nonzero">
            <g id="youtube" transform="translate(115.484462, 549.000000)">
                <path d="M22.3935675,0 L5.86997572,0 C2.62807465,0 0,2.62807465 0,5.86997572 L0,14.1300243 C0,17.3719254 2.62807465,20 5.86997572,20 L22.3935675,20 C25.6354685,20 28.2635432,17.3719254 28.2635432,14.1300243 L28.2635432,5.86997572 C28.2635432,2.62807465 25.6354685,0 22.3935675,0 Z M18.4237438,10.401881 L10.6951223,14.0879663 C10.4891851,14.1861834 10.2513059,14.0360375 10.2513059,13.8079064 L10.2513059,6.20533634 C10.2513059,5.97395591 10.4954386,5.82399392 10.7018049,5.92858719 L18.4304265,9.84507198 C18.6602129,9.9614979 18.6562278,10.2910342 18.4237438,10.401881 Z" id="Shape"></path>
            </g>
        </g>
    </g>
</svg>